<svg xmlns="http://www.w3.org/2000/svg" xmlns:xlink="http://www.w3.org/1999/xlink" width="16" height="16" viewBox="0 0 16 16">
  <defs>
    <clipPath id="clip-path">
      <rect id="Rectangle_24084" data-name="Rectangle 24084" width="16" height="16" transform="translate(5842 4548)" fill="#fff" stroke="#707070" stroke-width="1"/>
    </clipPath>
  </defs>
  <g id="objectTrue" transform="translate(-5842 -4548)" clip-path="url(#clip-path)">
    <path id="status-updated-svgrepo-com_1_" data-name="status-updated-svgrepo-com (1)" d="M6.716,9.017,5.458,7.669a.889.889,0,1,0-1.3,1.212l1.279,1.371,0,0,.68.7a.8.8,0,0,0,1.131.02L7.8,10.44l.128-.119,0,0,3.934-3.8a.889.889,0,0,0-1.235-1.279L6.716,9.017ZM8,16a8,8,0,1,1,8-8A8,8,0,0,1,8,16Z" transform="translate(5842 4548)" fill="#fff"/>
  </g>
</svg>
